# Blender v2.82 (sub 7) OBJ File: ''
# www.blender.org
o Cube_Cube.001
v -1.000000 -1.000000 1.000000
v -1.000000 1.000000 1.000000
v -1.000000 -1.000000 -1.000000
v -1.000000 1.000000 -1.000000
v 1.000000 -1.000000 1.000000
v 1.000000 1.000000 1.000000
v 1.000000 -1.000000 -1.000000
v 1.000000 1.000000 -1.000000

vt 0 0
vt 0 1
vt 1 0
vt 1 1
vn -1.0000 0.0000 0.0000
vn 0.0000 0.0000 -1.0000
vn 1.0000 0.0000 0.0000
vn 0.0000 0.0000 1.0000
vn 0.0000 -1.0000 0.0000
vn 0.0000 1.0000 0.0000
s off
f 2/2/1 3/3/1 1/4/1
f 4/2/2 7/3/2 3/4/2
f 8/2/3 5/3/3 7/4/3
f 6/2/4 1/3/4 5/4/4
f 7/2/5 1/3/5 3/4/5
f 4/2/6 6/3/6 8/4/6
f 2/2/1 4/1/1 3/3/1
f 4/2/2 8/1/2 7/3/2
f 8/2/3 6/1/3 5/3/3
f 6/2/4 2/1/4 1/3/4
f 7/2/5 5/1/5 1/3/5
f 4/2/6 2/1/6 6/3/6
